<?xml version="1.0" encoding="UTF-8"?>
<!DOCTYPE svg PUBLIC "-//W3C//DTD SVG 1.1//EN" "http://www.w3.org/Graphics/SVG/1.1/DTD/svg11.dtd">
<!-- Creator: CorelDRAW 2017 -->
<svg xmlns="http://www.w3.org/2000/svg" xml:space="preserve" width="297mm" height="420mm" version="1.1" style="shape-rendering:geometricPrecision; text-rendering:geometricPrecision; image-rendering:optimizeQuality; fill-rule:evenodd; clip-rule:evenodd"
viewBox="0 0 29700 42000"
 xmlns:xlink="http://www.w3.org/1999/xlink">
 <defs>
  <style type="text/css">
   <![CDATA[
    .fil1 {fill:none}
    .fil0 {fill:black}
   ]]>
  </style>
 </defs>
 <g id="Layer_x0020_1">
  <metadata id="CorelCorpID_0Corel-Layer"/>
  <path class="fil0" d="M8850 28147l0 -2977 1184 2977 209 0 3063 0 208 0 1197 -2982 -9 2982 698 0 1133 0 0 -3814 4975 -4956c153,-153 241,-337 264,-554l0 -2 0 -2 0 -2 0 -2 0 -2 0 -2 0 0 0 -2 0 -2 0 -2 0 -2 0 -2 0 -2 0 -1 0 -1 0 -2 0 -2 0 -2 0 -4 0 -2 0 0 0 -2 0 -2 0 -2 0 -6 0 -1 0 -1 0 -6 0 -2 0 -2 0 -2 0 0 0 -2 0 -2 0 -2 0 -2 0 -4 0 -1 0 -1 0 -2 0 -8 0 -1 0 -1 0 -4 0 -2 0 -2 0 -2 0 -2 0 0 0 -2 0 -2 0 -2 0 -2 0 -2 0 -2 0 -1 0 -1 0 -2 0 -2 0 -2 0 -2 0 -2 0 -2c0,-271 -90,-497 -271,-678 -181,-194 -407,-290 -678,-290 -271,0 -497,97 -678,290 -129,129 -210,258 -242,387 -32,129 -48,245 -48,348l0 581 -3523 0 0 -561c-13,-607 94,-1194 319,-1762 226,-568 558,-1065 997,-1491 439,-439 932,-768 1481,-987 548,-219 1107,-329 1674,-329l-1787 0 -18 0 -3605 0 -239 0 -303 0 -3090 7314 -3073 -7314 -544 0 -3624 0 0 13938 18 0 3605 0 698 0zm16430 -3504l0 -5812c-16,523 -125,1037 -327,1543 -219,549 -548,1042 -987,1481l-2768 2788 4083 0zm-4450 -10434l0 0 -19 0 19 0z"/>
  <path class="fil0" d="M8850 28147l0 -2977 1184 2977 209 0 3063 0 208 0 1197 -2982 -9 2982 698 0 1133 0 0 -3814 4975 -4956c153,-153 241,-337 264,-554l0 -2 0 -2 0 -2 0 -2 0 -2 0 -2 0 0 0 -2 0 -2 0 -2 0 -2 0 -2 0 -2 0 -1 0 -1 0 -2 0 -2 0 -2 0 -4 0 -2 0 0 0 -2 0 -2 0 -2 0 -6 0 -1 0 -1 0 -6 0 -2 0 -2 0 -2 0 0 0 -2 0 -2 0 -2 0 -2 0 -4 0 -1 0 -1 0 -2 0 -8 0 -1 0 -1 0 -4 0 -2 0 -2 0 -2 0 -2 0 0 0 -2 0 -2 0 -2 0 -2 0 -2 0 -2 0 -1 0 -1 0 -2 0 -2 0 -2 0 -2 0 -2 0 -2c0,-271 -90,-497 -271,-678 -181,-194 -407,-290 -678,-290 -271,0 -497,97 -678,290 -129,129 -210,258 -242,387 -32,129 -48,245 -48,348l0 581 -3523 0 0 -561c-13,-607 94,-1194 319,-1762 226,-568 558,-1065 997,-1491 439,-439 932,-768 1481,-987 548,-219 1107,-329 1674,-329l-1787 0 -18 0 -3605 0 -239 0 -303 0 -3090 7314 -3073 -7314 -544 0 -3624 0 0 13938 18 0 3605 0 698 0zm16430 -3504l0 -5812c-16,523 -125,1037 -327,1543 -219,549 -548,1042 -987,1481l-2768 2788 4083 0zm-4450 -10434l0 0 -19 0 19 0z"/>
  <line class="fil1" x1="8850" y1="28147" x2="10034" y2= "28147" />
  <line class="fil1" x1="13513" y1="28147" x2="14701" y2= "28147" />
  <line class="fil1" x1="8695" y1="14210" x2="14858" y2= "14210" />
 </g>
</svg>
